<svg width="1587" height="166" viewBox="0 0 1587 166" fill="none" xmlns="http://www.w3.org/2000/svg">
<path d="M1511.3 38.1035V119.605C1511.3 135.364 1507.72 147.007 1500.54 154.534C1493.37 162.178 1482.55 166 1468.08 166C1459.97 166 1452.26 164.707 1444.97 162.119C1437.8 159.65 1431.98 156.18 1427.51 151.711L1433.86 142.185C1437.86 146.184 1442.8 149.3 1448.68 151.535C1454.56 153.769 1460.85 154.887 1467.55 154.887C1478.26 154.887 1486.13 152.123 1491.19 146.595C1496.25 141.185 1498.78 132.718 1498.78 121.192V110.431C1495.48 115.841 1490.96 120.016 1485.19 122.956C1479.55 125.897 1473.14 127.367 1465.97 127.367C1453.85 127.367 1444.27 124.015 1437.21 117.311C1430.27 110.49 1426.8 100.552 1426.8 87.4982V38.1035H1439.33V86.2633C1439.33 96.0246 1441.74 103.434 1446.56 108.491C1451.38 113.548 1458.26 116.076 1467.2 116.076C1476.96 116.076 1484.66 113.136 1490.31 107.256C1495.96 101.258 1498.78 92.9669 1498.78 82.3823V38.1035H1511.3Z" fill="#2688E3"/>
<path d="M1396.33 0V130.896H1384.33V112.549C1380.57 118.782 1375.57 123.545 1369.34 126.838C1363.22 130.131 1356.29 131.778 1348.52 131.778C1339.82 131.778 1331.94 129.779 1324.88 125.78C1317.83 121.781 1312.3 116.195 1308.3 109.021C1304.3 101.847 1302.3 93.6734 1302.3 84.5001C1302.3 75.3268 1304.3 67.1532 1308.3 59.9792C1312.3 52.8052 1317.83 47.2777 1324.88 43.3967C1331.94 39.3981 1339.82 37.3988 1348.52 37.3988C1356.05 37.3988 1362.81 38.9865 1368.81 42.1619C1374.93 45.2196 1379.92 49.7475 1383.81 55.7454V0H1396.33ZM1349.58 120.664C1356.05 120.664 1361.87 119.194 1367.05 116.254C1372.34 113.196 1376.46 108.903 1379.4 103.376C1382.45 97.8484 1383.98 91.5565 1383.98 84.5001C1383.98 77.4438 1382.45 71.1518 1379.4 65.6243C1376.46 60.0968 1372.34 55.863 1367.05 52.9228C1361.87 49.8651 1356.05 48.3362 1349.58 48.3362C1343 48.3362 1337.06 49.8651 1331.76 52.9228C1326.59 55.863 1322.47 60.0968 1319.42 65.6243C1316.48 71.1518 1315.01 77.4438 1315.01 84.5001C1315.01 91.5565 1316.48 97.8484 1319.42 103.376C1322.47 108.903 1326.59 113.196 1331.76 116.254C1337.06 119.194 1343 120.664 1349.58 120.664Z" fill="#2688E3"/>
<path d="M1280.3 0V130.896H1268.3V112.549C1264.54 118.782 1259.54 123.545 1253.31 126.838C1247.19 130.131 1240.26 131.778 1232.49 131.778C1223.79 131.778 1215.91 129.779 1208.85 125.78C1201.8 121.781 1196.27 116.195 1192.27 109.021C1188.27 101.847 1186.27 93.6734 1186.27 84.5001C1186.27 75.3268 1188.27 67.1532 1192.27 59.9792C1196.27 52.8052 1201.8 47.2777 1208.85 43.3967C1215.91 39.3981 1223.79 37.3988 1232.49 37.3988C1240.02 37.3988 1246.78 38.9865 1252.78 42.1619C1258.9 45.2196 1263.89 49.7475 1267.78 55.7454V0H1280.3ZM1233.55 120.664C1240.02 120.664 1245.84 119.194 1251.02 116.254C1256.31 113.196 1260.42 108.903 1263.36 103.376C1266.42 97.8484 1267.95 91.5565 1267.95 84.5001C1267.95 77.4438 1266.42 71.1518 1263.36 65.6243C1260.42 60.0968 1256.31 55.863 1251.02 52.9228C1245.84 49.8651 1240.02 48.3362 1233.55 48.3362C1226.97 48.3362 1221.03 49.8651 1215.73 52.9228C1210.56 55.863 1206.44 60.0968 1203.39 65.6243C1200.45 71.1518 1198.98 77.4438 1198.98 84.5001C1198.98 91.5565 1200.45 97.8484 1203.39 103.376C1206.44 108.903 1210.56 113.196 1215.73 116.254C1221.03 119.194 1226.97 120.664 1233.55 120.664Z" fill="#2688E3"/>
<path d="M1164.07 38.1035V130.895H1152.08V113.96C1148.78 119.605 1144.26 124.015 1138.49 127.19C1132.73 130.248 1126.14 131.777 1118.74 131.777C1106.62 131.777 1097.04 128.425 1089.98 121.722C1083.04 114.9 1079.57 104.963 1079.57 91.9084V38.1035H1092.1V90.6735C1092.1 100.435 1094.51 107.844 1099.33 112.901C1104.15 117.958 1111.03 120.487 1119.97 120.487C1129.73 120.487 1137.43 117.547 1143.08 111.666C1148.72 105.668 1151.55 97.3771 1151.55 86.7925V38.1035H1164.07Z" fill="#2688E3"/>
<path d="M1031.43 67.211C1039.54 68.9751 1045.78 72.5033 1050.13 77.7956C1054.6 82.9703 1056.83 89.6738 1056.83 97.9063C1056.83 108.491 1052.89 116.664 1045.01 122.427C1037.25 128.072 1025.73 130.895 1010.44 130.895H953.633V7.4082H1006.91C1020.67 7.4082 1031.31 10.172 1038.84 15.6994C1046.48 21.2269 1050.3 29.0478 1050.3 39.1619C1050.3 45.9831 1048.6 51.8046 1045.19 56.6264C1041.9 61.3307 1037.31 64.8589 1031.43 67.211ZM966.687 18.1692V62.9772H1006.03C1016.02 62.9772 1023.73 61.0955 1029.14 57.3321C1034.55 53.4511 1037.25 47.8648 1037.25 40.5732C1037.25 33.2816 1034.55 27.7541 1029.14 23.9907C1023.73 20.1097 1016.02 18.1692 1006.03 18.1692H966.687ZM1010.26 120.134C1021.32 120.134 1029.66 118.252 1035.31 114.489C1040.96 110.725 1043.78 104.845 1043.78 96.8478C1043.78 81.4414 1032.61 73.7382 1010.26 73.7382H966.687V120.134H1010.26Z" fill="#2688E3"/>
<path d="M885.785 106.905C890.372 106.905 894.312 106.258 897.605 104.965C901.015 103.671 904.426 101.554 907.836 98.614L925.301 116.961C916.245 127.31 902.72 132.485 884.727 132.485C873.554 132.485 863.734 130.368 855.266 126.134C846.799 121.9 840.213 116.02 835.508 108.493C830.922 100.966 828.628 92.4397 828.628 82.9135C828.628 73.505 830.922 65.0962 835.508 57.687C840.095 50.1602 846.387 44.2799 854.384 40.046C862.499 35.8122 871.555 33.6953 881.551 33.6953C890.842 33.6953 899.31 35.6358 906.954 39.5168C914.716 43.2802 920.891 48.8665 925.477 56.2757C930.064 63.5673 932.357 72.2702 932.357 82.3843L864.087 95.4386C867.733 103.083 874.965 106.905 885.785 106.905ZM881.728 57.5106C875.965 57.5106 871.261 59.3335 867.615 62.9793C863.969 66.5075 861.911 71.6233 861.441 78.3269L900.251 70.7413C899.075 66.7427 896.84 63.5673 893.547 61.2152C890.254 58.7455 886.314 57.5106 881.728 57.5106Z" fill="#2688E3"/>
<path d="M781.76 132.485C771.176 132.485 761.708 130.368 753.358 126.134C745.008 121.9 738.481 116.02 733.777 108.493C729.19 100.966 726.897 92.4397 726.897 82.9135C726.897 73.3874 729.19 64.9198 733.777 57.5106C738.481 49.9838 745.008 44.1623 753.358 40.046C761.708 35.8122 771.176 33.6953 781.76 33.6953C792.58 33.6953 801.93 36.0474 809.809 40.7517C817.689 45.3383 823.275 51.7479 826.568 59.9803L800.636 73.211C796.284 64.6258 789.934 60.3331 781.584 60.3331C775.586 60.3331 770.587 62.3324 766.589 66.3311C762.708 70.3297 760.767 75.8572 760.767 82.9135C760.767 90.0875 762.708 95.7326 766.589 99.8489C770.587 103.847 775.586 105.847 781.584 105.847C789.934 105.847 796.284 101.554 800.636 92.9689L826.568 106.2C823.275 114.432 817.689 120.9 809.809 125.605C801.93 130.191 792.58 132.485 781.76 132.485Z" fill="#2688E3"/>
<path d="M674.485 33.6953C686.363 33.6953 695.89 37.2235 703.064 44.2799C710.355 51.3363 714.001 61.9796 714.001 76.21V130.897H680.483V81.6787C680.483 68.6244 675.25 62.0972 664.783 62.0972C659.02 62.0972 654.375 63.9789 650.846 67.7423C647.436 71.5057 645.73 77.1508 645.73 84.6776V130.897H612.213V35.283H644.143V45.6912C647.906 41.8101 652.375 38.87 657.55 36.8707C662.725 34.7538 668.37 33.6953 674.485 33.6953Z" fill="#2688E3"/>
<path d="M594.164 35.283V130.897H562.233V121.371C556 128.78 546.592 132.485 534.008 132.485C525.305 132.485 517.367 130.485 510.193 126.487C503.136 122.37 497.491 116.549 493.257 109.022C489.141 101.495 487.083 92.7925 487.083 82.9135C487.083 73.0346 489.141 64.3906 493.257 56.9814C497.491 49.4546 503.136 43.6918 510.193 39.6932C517.367 35.6946 525.305 33.6953 534.008 33.6953C545.298 33.6953 554.177 36.9883 560.646 43.5742V35.283H594.164ZM541.064 105.847C546.945 105.847 551.766 103.847 555.53 99.8489C559.293 95.7326 561.175 90.0875 561.175 82.9135C561.175 75.8572 559.293 70.3297 555.53 66.3311C551.766 62.3324 546.945 60.3331 541.064 60.3331C535.184 60.3331 530.362 62.3324 526.599 66.3311C522.835 70.3297 520.954 75.8572 520.954 82.9135C520.954 90.0875 522.835 95.7326 526.599 99.8489C530.362 103.847 535.184 105.847 541.064 105.847Z" fill="#2688E3"/>
<path d="M451.532 46.7496C454.943 42.3982 459.353 39.164 464.763 37.0471C470.291 34.8126 476.583 33.6953 483.639 33.6953V63.8613C480.581 63.5085 478.053 63.3321 476.053 63.3321C468.879 63.3321 463.234 65.2726 459.118 69.1536C455.119 73.0346 453.12 78.9737 453.12 86.971V130.897H419.602V35.283H451.532V46.7496Z" fill="#2688E3"/>
<path d="M401.541 35.2812V130.895H369.611V120.663C366.083 124.544 361.849 127.485 356.91 129.484C351.97 131.483 346.737 132.483 341.209 132.483C328.861 132.483 318.982 128.837 311.572 121.545C304.281 114.254 300.635 103.317 300.635 88.7333V35.2812H334.153V83.2646C334.153 90.4386 335.505 95.6721 338.21 98.9651C340.915 102.258 344.855 103.905 350.03 103.905C355.322 103.905 359.615 102.082 362.908 98.4358C366.318 94.6724 368.023 88.9685 368.023 81.3241V35.2812H401.541Z" fill="#2688E3"/>
<path d="M242.795 132.485C234.797 132.485 226.918 131.603 219.156 129.838C211.394 127.957 205.161 125.546 200.456 122.606L210.512 99.6725C214.863 102.377 220.038 104.553 226.036 106.2C232.034 107.728 237.973 108.493 243.853 108.493C249.263 108.493 253.085 107.964 255.32 106.905C257.672 105.729 258.848 104.083 258.848 101.966C258.848 99.8489 257.437 98.3788 254.614 97.5555C251.909 96.6147 247.558 95.7326 241.56 94.9094C233.915 93.9685 227.388 92.7337 221.978 91.2048C216.686 89.6759 212.099 86.8534 208.218 82.7371C204.337 78.6209 202.397 72.8582 202.397 65.449C202.397 59.3335 204.22 53.9236 207.866 49.2193C211.511 44.3975 216.804 40.6341 223.742 37.9291C230.799 35.1066 239.208 33.6953 248.969 33.6953C255.908 33.6953 262.788 34.4009 269.609 35.8122C276.43 37.2235 282.134 39.2228 286.721 41.8101L276.665 64.567C268.198 59.8627 259.024 57.5106 249.145 57.5106C243.853 57.5106 239.972 58.1574 237.502 59.4511C235.033 60.6272 233.798 62.2148 233.798 64.2141C233.798 66.4487 235.15 68.0364 237.855 68.9772C240.56 69.8004 245.029 70.6825 251.262 71.6233C259.142 72.7994 265.669 74.1519 270.844 75.6808C276.018 77.2096 280.487 80.0322 284.251 84.1484C288.132 88.147 290.072 93.7921 290.072 101.084C290.072 107.082 288.249 112.492 284.604 117.313C280.958 122.018 275.548 125.722 268.374 128.427C261.318 131.132 252.791 132.485 242.795 132.485Z" fill="#2688E3"/>
<path d="M151.011 33.6953C162.889 33.6953 172.415 37.2235 179.589 44.2799C186.881 51.3363 190.527 61.9796 190.527 76.21V130.897H157.009V81.6787C157.009 68.6244 151.775 62.0972 141.308 62.0972C135.546 62.0972 130.9 63.9789 127.372 67.7423C123.961 71.5057 122.256 77.1508 122.256 84.6776V130.897H88.7383V35.283H120.668V45.6912C124.432 41.8101 128.901 38.87 134.076 36.8707C139.25 34.7538 144.895 33.6953 151.011 33.6953Z" fill="#2688E3"/>
<path d="M55.0398 34.3988V103.904H74.974V130.895H0V103.904H20.1107V34.3988H0V7.4082H74.974V34.3988H55.0398Z" fill="#2688E3"/>
<path d="M1556.09 28V0H1560.37L1572.61 20.44H1570.37L1582.41 0H1586.69L1586.73 28H1581.81L1581.77 7.72H1582.81L1572.57 24.8H1570.25L1559.85 7.72H1561.05V28H1556.09Z" fill="#2688E3"/>
<path d="M1536.91 28V4.4H1527.63V0H1551.39V4.4H1542.11V28H1536.91Z" fill="#2688E3"/>
</svg>
