<svg width="1024" height="1024" viewBox="0 0 1024 1024" fill="none" xmlns="http://www.w3.org/2000/svg">
<path d="M376.943 496.872C379.094 497.879 383.237 499.653 384.356 501.697C390.555 506.076 397.458 509.577 403.891 513.445C438.33 534.148 477.529 552.54 517.747 557.333C525.684 558.28 534.574 559.466 542.565 559.311C543.541 558.784 554.857 557.877 556.084 557.975C560.121 558.298 577.983 553.956 579.754 554.467C586.988 552.753 618.453 536.096 623.941 530.711C625.34 529.288 631.146 525.579 633.04 524.845C635.775 533.005 641.126 554.861 634.507 561.944C632.995 566.979 638.275 577.494 639.99 583.039C643.965 595.939 647.056 609.095 649.244 622.414C652.963 626.116 657.305 630.238 660.722 634.144C661.612 632.586 664.47 623.632 665.196 621.497L677.421 585.671C689.542 550.234 690.827 553.64 726.787 560.176C728.629 559.003 732.192 554.919 733.521 553.138C740.11 544.3 751.254 541.437 761.886 544.709C783.263 551.288 817.925 546.589 813.312 578.552C834.084 584.085 858.194 583.227 847.987 612.505C842.125 629.322 837.359 647.365 831.313 664.229C861.08 678.629 856.56 711.761 843.975 736.763C837.984 748.665 830.293 761.474 817.221 766.481C810.826 768.962 802.626 767.538 798.891 768.538C795.521 780.24 790.737 795.41 785.69 806.387C778.496 822.034 754.127 814.32 740.555 811.82L707.646 806.081L659.267 797.562C648.499 795.659 637.471 794.116 627.057 790.766C618.164 787.905 615.847 782.325 615.196 773.742L605.683 768.679C609.264 789.604 603.495 801.724 593.572 820.493C625.411 820.15 646.458 830.674 647.86 865.325C646.313 884.04 627.366 885.413 612.759 886.65C592.433 888.373 572.141 887.173 552.193 882.698C551.969 890.257 553.016 895.591 546.778 901.209C539.024 908.195 529.347 910.154 519.569 912.135C508.842 913.443 498.087 913.192 487.298 912.908C484.483 913.203 480.618 914.411 478.215 914.458C446.447 915.077 406.088 914.654 375.102 913.843C347.388 913.117 196.172 905.308 183.751 886.765C183.519 885.181 183.402 884.383 184.375 883.021C191.193 873.481 247.929 870.043 262.145 868.732L262.206 859.171C254.268 846.481 250.758 841.007 245.682 826.7C236.166 827.446 228.506 827.82 219.047 826.031C197.517 821.959 175.471 813.878 160.453 797.22C157.956 794.451 152.589 788.083 156.685 784.743C158.782 783.011 162.57 784.153 165.055 784.599C139.457 763.666 123.106 731.145 121.183 697.955C120.873 692.596 120.207 682.224 125.527 679.183C129.218 679.722 132.855 685.901 135.364 689.243C133.547 664.284 137.255 642.801 150.327 621.132C159.955 605.174 174.749 590.036 193.39 585.491C206.656 589.847 204.204 597.958 201.644 609.679C189.894 663.472 198.311 716.526 244.428 750.955C246.528 742.552 249.122 731.945 252.39 724.021C271.94 676.622 303.521 632.364 334.925 592.166C348.678 574.561 361.989 559.159 374.795 540.846C368.436 525.181 370.847 512.299 376.943 496.872Z" fill="#EC952C"/>
<path d="M376.943 496.872C379.094 497.879 383.237 499.653 384.356 501.697C390.555 506.076 397.458 509.577 403.891 513.445C438.33 534.148 477.529 552.54 517.747 557.333C525.684 558.28 534.574 559.466 542.565 559.311C543.541 558.784 554.857 557.877 556.084 557.975C560.121 558.298 577.984 553.956 579.754 554.467C586.988 552.753 618.453 536.096 623.941 530.711C625.341 529.288 631.146 525.579 633.04 524.845C635.775 533.005 641.126 554.861 634.507 561.944C631.002 565.417 629.198 571.602 626.417 576.254C627.498 578.115 630.018 582.477 630.213 584.44C619.312 590.916 612.97 599.558 604.558 603.693C599.21 604.724 599.438 604.965 594.245 602.938C592.607 603.749 591.212 604.603 589.419 604.874C586.925 609.517 584.705 613.789 581.77 618.19C588.58 632.751 610.652 720.571 606.216 732.308C601.49 744.81 580.755 769.698 568.465 774.935C565.417 776.235 562.753 776.354 559.726 774.976C548.174 769.714 526.848 745.352 522.77 733.103C521.931 730.583 521.672 728.203 521.913 725.561C522.699 716.971 525.498 708.304 526.976 699.769C530.031 682.126 532.671 664.456 536.008 646.858C537.768 637.577 539.083 628.056 542.689 619.274C537.538 611.874 530.884 602.898 526.559 595.148C522.508 599.452 516.289 605.344 511.123 608.085C475.498 609.166 406.879 571.11 380.797 547.033C366.193 569.781 349.139 589.098 332.669 610.392C318.213 628.943 304.721 648.226 292.248 668.164C263.817 713.705 242.703 758.791 252.872 814.942C256.284 833.785 265.622 844.079 273.502 859.524C271.9 865.707 271.92 866.829 272.898 873.185C287.04 889.047 332.425 892.128 353.427 893.347L353.991 893.374C353.953 890.969 353.99 885.144 353.707 883.039L353.015 886.658C338.73 883.425 293.927 878.111 285.57 868.33C280.885 862.848 281.623 854.456 284.087 848.141C285.118 845.498 287.128 842.362 287.29 839.562C283.308 835.397 276.543 823.225 274.737 817.581C266.51 789.786 271.773 756.951 285.049 731.494C288.69 724.511 297.331 715.466 299.526 709.878C297.718 710.746 295.992 711.862 294.068 711.674L293.645 710.943C296.381 703.416 308.947 694.46 316.152 691.51C349.24 677.957 377.345 693.601 394.277 722.362C395.465 719.532 396.71 716.587 398.331 713.98C400.753 710.087 402.501 709.322 402.862 704.398C403.229 716.012 402.436 728.302 403.467 739.793C405.849 766.308 411.741 792.162 418.435 817.84C422.363 832.915 430.621 852.419 433.198 866.938C434.251 869.194 435.544 873.596 435.728 876.048C437.422 877.888 439.84 885.373 441.26 888.137C450.815 906.742 468.655 909.976 487.298 912.908C484.483 913.203 480.618 914.411 478.215 914.458C446.447 915.077 406.088 914.654 375.102 913.843C347.388 913.117 196.172 905.308 183.751 886.765C183.519 885.181 183.402 884.383 184.375 883.021C191.193 873.481 247.929 870.043 262.145 868.732L262.206 859.171C254.268 846.481 250.758 841.007 245.682 826.7C236.166 827.446 228.506 827.82 219.047 826.031C197.517 821.959 175.471 813.878 160.453 797.22C157.956 794.451 152.589 788.083 156.685 784.743C158.782 783.011 162.57 784.153 165.055 784.599C139.457 763.666 123.106 731.145 121.183 697.955C120.873 692.596 120.207 682.224 125.527 679.183C129.218 679.722 132.855 685.901 135.364 689.243C133.547 664.284 137.255 642.801 150.327 621.132C159.955 605.174 174.749 590.036 193.39 585.491C206.656 589.847 204.204 597.958 201.644 609.679C189.894 663.472 198.311 716.526 244.428 750.955C246.528 742.552 249.122 731.945 252.39 724.021C271.94 676.622 303.521 632.364 334.925 592.166C348.678 574.561 361.989 559.159 374.795 540.846C368.436 525.181 370.847 512.299 376.943 496.872Z" fill="url(#paint0_linear_3132_1435)"/>
<path d="M299.527 709.878C321.281 690.75 358.111 689.877 376.862 713.556C406.189 750.589 395.821 798.309 364.145 829.616C354.955 829.719 322.955 831.385 318.736 840.273L319.021 840.992C324.237 843.235 336.564 838.945 342.454 838.389C363.156 836.432 392.851 836.35 402.035 859.533C404.115 864.78 406.306 875.091 404.285 880.401C402.695 884.577 398.112 886.944 394.451 889.034C393.78 876.362 392.814 861.948 382.211 853.296C380.288 851.727 375.9 847.444 373.811 850.001C373.874 852.78 381.755 865.471 383.165 870.288C385.556 878.455 386.069 883.654 385.694 892.124C379.956 890.128 368.443 887.58 362.562 887.555C362.576 880.342 361.037 873.211 358.05 866.647C355.701 861.605 350.939 853.092 344.351 856.992C344.647 859.345 349.239 865.747 350.346 868.722C352.232 873.788 352.893 877.744 353.707 883.039L353.015 886.658C338.73 883.425 293.927 878.111 285.57 868.33C280.885 862.848 281.624 854.456 284.087 848.141C285.118 845.498 287.128 842.362 287.29 839.562C283.308 835.396 276.543 823.225 274.737 817.581C266.51 789.786 271.773 756.951 285.049 731.494C288.69 724.511 297.331 715.466 299.527 709.878Z" fill="#F59F33"/>
<path d="M384.356 501.697C390.555 506.076 397.458 509.577 403.891 513.445C438.33 534.148 477.529 552.54 517.747 557.333C525.684 558.28 534.574 559.466 542.565 559.311C537.936 568.129 520.728 592.71 512.318 597.95C505.996 601.889 484.043 594.307 476.388 591.635C448.404 581.867 422.133 569.37 398.852 550.765C393.778 546.71 385.21 541.272 382.621 535.163C378.13 524.567 380.504 511.955 384.356 501.697Z" fill="white"/>
<path d="M433.198 866.939C434.251 869.194 435.544 873.596 435.728 876.048C428.544 876.509 422.472 876.843 415.235 876.632C414.631 874.79 414.519 869.944 414.223 867.464C420.305 867.503 427.071 867.139 433.198 866.939Z" fill="#9C490E"/>
<path d="M402.862 704.398C403.229 716.012 402.436 728.303 403.467 739.793C405.849 766.308 411.741 792.163 418.435 817.841C422.363 832.915 430.621 852.419 433.198 866.939C427.071 867.139 420.305 867.503 414.223 867.463C412.604 863.938 411.026 855.103 408.711 850.622C400.724 835.161 389.936 835.427 377.124 830.494L376.523 830.258C379.567 825.51 383.705 821.514 386.708 816.894C405.9 787.368 408.573 753.873 394.277 722.362C395.465 719.532 396.71 716.587 398.331 713.981C400.753 710.087 402.501 709.322 402.862 704.398Z" fill="url(#paint1_linear_3132_1435)"/>
<path d="M579.754 554.467C586.988 552.753 618.453 536.096 623.941 530.711C624.657 532.325 626.596 536.381 627.071 537.859C630.286 550.313 625.306 562.72 619.022 573.36C616.986 576.807 606.022 596.374 600.562 590.6C593.674 583.314 585.652 570.383 581.639 561.145C580.716 558.539 580.337 557.171 579.754 554.467Z" fill="white"/>
<path d="M579.754 554.467C586.988 552.753 618.453 536.096 623.941 530.711C624.657 532.325 626.596 536.381 627.071 537.859C618.381 543.38 611.709 547.065 602.286 551.365C596.457 554.025 586.414 557.618 581.639 561.145C580.716 558.539 580.337 557.171 579.754 554.467Z" fill="white"/>
<path d="M626.417 576.254C627.498 578.116 630.018 582.477 630.213 584.44C619.312 590.916 612.969 599.558 604.558 603.694C599.21 604.724 599.437 604.965 594.245 602.938C592.607 603.749 591.212 604.603 589.418 604.874C590.529 602.491 593.014 598.485 594.425 596.073C598.542 600.342 598.749 601.562 604.81 601.034C612.562 597.631 621.806 583.283 626.417 576.254Z" fill="#D87A25"/>
<path d="M362.562 887.555C368.443 887.58 379.956 890.128 385.694 892.124C375.82 894.169 372.217 894.138 362.251 894.212L362.562 887.555Z" fill="#D87A25"/>
<path d="M148.088 702.272C141.418 683.256 145.147 653.347 154.164 635.023C161.59 619.929 174.501 603.646 190.577 596.238C191.987 595.588 192.13 595.882 193.071 596.351C194.508 599.119 190.194 617.634 189.382 621.941C182.2 660.052 191.731 713.956 219.518 742.546C227.796 750.72 232.622 755.157 242.678 760.712C239.02 785.908 238.598 791.968 242.409 816.927C234.066 817.716 226.77 817.86 218.536 815.878C199.494 811.291 184.473 807.336 170.634 792.799C175.397 792.82 184.345 793.696 187.312 789.728C187.03 788.492 186.423 787.609 185.268 786.952C156.566 770.62 131.314 733.251 131.254 698.412C132.073 699.856 134.86 704.367 136.029 705.434C138.466 707.656 148.192 715.902 150.929 716.008C151.411 712.082 147.197 708.773 148.088 702.272Z" fill="#F59F33"/>
<path d="M131.254 698.412C132.073 699.856 134.86 704.367 136.029 705.434C138.466 707.656 148.192 715.902 150.929 716.008C151.411 712.082 147.197 708.773 148.088 702.272C149.591 708.556 151.941 713.085 153.516 718.942C147.717 716.149 145.761 714.892 141.032 710.502L141.119 711.378C141.583 716.258 141.111 720.838 141.158 725.647C141.28 738.385 153.735 746.239 162.361 754.176C167.913 759.283 188.53 773.575 196.12 772.705C208.132 771.326 216.126 752.646 219.518 742.547C227.796 750.72 232.622 755.158 242.678 760.713C239.02 785.908 238.598 791.968 242.409 816.927C234.066 817.716 226.77 817.86 218.536 815.878C199.494 811.291 184.473 807.336 170.634 792.799C175.397 792.821 184.345 793.696 187.312 789.728C187.03 788.492 186.423 787.609 185.268 786.952C156.566 770.62 131.314 733.251 131.254 698.412Z" fill="#D87A25"/>
<path d="M552.809 621.423C560.307 621.105 567.815 621.136 575.31 621.518C584.521 639.914 597.636 707.426 598.923 729.289C599.364 736.768 578.683 757.627 571.851 763.627C569.3 765.737 565.51 769.232 562.151 767.362C549.716 760.438 534.415 741.651 529.222 728.839C529.825 723.641 534.019 705.489 535.192 700.346C538.1 687.592 545.297 629.173 552.809 621.423Z" fill="#E54913"/>
<path d="M569.672 561.197L570.237 561.177C573.773 563.763 584.006 582.427 586.535 587.089C583.519 594.744 580.139 603.801 575.453 610.441C568.717 611.497 559.605 611.674 552.323 612.446C548.102 609.369 540.965 595.487 536.95 590.947C533.74 587.316 548.683 568.009 551.766 562.89C555.6 563.323 565.632 561.811 569.672 561.197Z" fill="#E54913"/>
<path d="M726.787 560.175C728.629 559.003 732.193 554.919 733.521 553.138C740.11 544.299 751.254 541.436 761.886 544.708C783.263 551.288 817.926 546.588 813.312 578.552C834.084 584.085 858.194 583.227 847.987 612.505C842.126 629.322 837.359 647.365 831.313 664.228C861.08 678.629 856.56 711.761 843.976 736.763C837.984 748.665 830.293 761.474 817.222 766.481C810.826 768.961 802.626 767.537 798.891 768.538C795.521 780.24 790.738 795.41 785.69 806.387C778.496 822.034 754.128 814.32 740.555 811.82L707.646 806.081L659.267 797.562C648.499 795.659 637.472 794.116 627.058 790.766C618.164 787.905 615.848 782.325 615.197 773.741L605.683 768.679C609.264 789.603 603.495 801.724 593.573 820.493C625.411 820.149 646.458 830.674 647.86 865.324C646.314 884.039 627.367 885.413 612.76 886.65C592.433 888.372 572.142 887.172 552.193 882.698C550.359 880.406 550.791 876.103 550.817 873.081C549.396 871.288 546.19 863.755 544.503 861.106C539.065 852.566 531.047 851.645 522.927 847.048C520.609 845.737 520.662 844.386 520.092 842.104C519.016 842.848 519.096 842.807 517.809 843.048C515.331 841.288 513.299 836.89 514.39 834.044C521.643 830.622 531.921 825.54 538.448 821.089C567.053 801.576 592.344 772.234 607.996 741.37C616.989 723.636 623.643 699.22 626.704 679.675C627.922 671.891 629.039 663.628 629.595 655.758C630.005 649.965 629.229 641.125 630.296 635.718L631.023 636.85C638.242 645.02 633.391 668.937 638.645 669.477C642.666 666.732 639.775 665.644 641.052 663.357C641.195 667 640.613 670.462 643.879 672.702C652.924 668.271 648.317 640.868 650.745 637.373C653.199 636.899 654.145 641.315 657.5 642.201C659.898 640.772 660.258 636.729 660.722 634.144C661.612 632.586 664.47 623.631 665.196 621.496L677.421 585.671C689.542 550.233 690.827 553.64 726.787 560.175Z" fill="#F8E7C5"/>
<path d="M660.722 634.144C661.612 632.586 664.47 623.631 665.196 621.496L677.421 585.671C689.542 550.233 690.827 553.64 726.787 560.175C729.667 560.336 734.78 560.644 737.459 561.504L739.041 561.691L742.781 562.241L743.692 563.246C743.509 566.434 742.097 568.02 741.3 570.736C739.903 574.769 734.733 590.442 733.22 593.316C727.455 591.974 713.576 588.252 708.739 591.066C704.399 596.615 696.83 620.909 693.958 629.184L674.062 687.072L659.057 730.592C644.962 771.403 641.806 766.352 684.022 773.708L728.348 781.299C738.965 783.076 749.476 785.414 760.059 787.335C775.401 790.12 773.302 775.953 777.63 767.05L778.478 767.034C779.606 764.286 780.152 762.37 780.953 759.556C783.239 761.29 787.717 764.387 789.016 766.783C788.753 768.685 787.868 770.848 788.356 772.079C789.393 769.862 789.431 767.917 791.401 766.341C793.825 765.923 795.316 767.436 797.975 768.26L798.891 768.538C795.521 780.24 790.737 795.41 785.69 806.387C778.496 822.034 754.128 814.32 740.555 811.82L707.646 806.081L659.267 797.562C648.499 795.659 637.472 794.116 627.058 790.766C618.164 787.905 615.848 782.325 615.197 773.741L605.683 768.679C609.264 789.603 603.495 801.724 593.573 820.493C625.411 820.15 646.458 830.674 647.86 865.324C646.313 884.039 627.367 885.413 612.76 886.65C592.433 888.372 572.142 887.172 552.193 882.698C550.359 880.406 550.791 876.103 550.817 873.081C549.396 871.288 546.19 863.755 544.503 861.106C539.065 852.566 531.047 851.645 522.927 847.048C520.609 845.737 520.662 844.386 520.092 842.104C519.016 842.848 519.096 842.807 517.809 843.048C515.331 841.288 513.299 836.89 514.39 834.044C521.643 830.622 531.921 825.54 538.448 821.089C567.053 801.576 592.344 772.234 607.996 741.37C616.989 723.636 623.643 699.22 626.704 679.675C627.922 671.891 629.039 663.628 629.595 655.758C630.005 649.965 629.229 641.125 630.296 635.718L631.023 636.85C638.242 645.02 633.391 668.937 638.645 669.477C642.666 666.732 639.775 665.645 641.052 663.357C641.195 667 640.613 670.462 643.879 672.702C652.924 668.271 648.317 640.868 650.745 637.373C653.199 636.899 654.145 641.315 657.5 642.201C659.898 640.772 660.258 636.729 660.722 634.144Z" fill="#9C490E"/>
<path d="M697.209 565.013C706.136 564.821 732.614 568.331 741.3 570.737C739.903 574.769 734.733 590.443 733.22 593.317C727.455 591.975 713.576 588.253 708.739 591.067C704.399 596.616 696.83 620.91 693.958 629.185L674.062 687.073L659.057 730.593C644.962 771.404 641.806 766.353 684.022 773.709L728.348 781.3C738.965 783.076 749.477 785.415 760.059 787.336C775.401 790.121 773.302 775.954 777.631 767.051L778.478 767.035C779.606 764.287 780.152 762.371 780.953 759.556C783.239 761.291 787.717 764.388 789.016 766.784C788.753 768.685 787.868 770.849 788.356 772.08C787.288 777.059 785.167 783.235 783.499 788.114C780.396 797.191 777.548 807.685 765.89 806.544C753.611 805.341 742.075 802.561 730.052 800.497C708.352 796.835 686.688 792.973 665.059 788.913C654.057 786.912 642.892 784.979 632.058 782.4C628.329 781.511 623.754 775.937 624.479 772.246C625.939 764.828 628.947 756.683 631.362 749.564L643.624 713.349C654.501 680.09 665.581 646.899 676.865 613.777C681.373 600.554 685.758 587.144 690.442 573.976C691.743 570.317 694.426 567.578 697.209 565.013Z" fill="#D87A25"/>
<path d="M520.092 842.105C549.299 829.546 579.452 802.085 597.772 776.203C598.746 792.491 592.325 804.749 583.636 818.449C581.413 821.955 576.277 826.873 574.645 830.34C577.297 831.783 593.061 828.982 599.354 828.828C622.292 828.265 645.302 846.119 636.305 870.871C636.152 871.102 635.999 871.333 635.847 871.564L635.198 871.126C633.678 861.26 630.865 845.325 619.973 841.759L619.137 842.314C619.517 844.719 621.664 848.833 622.749 851.242C626.55 859.689 627.179 866.473 626.725 875.565C619.658 877.193 614.514 877.568 607.246 877.864C607.388 869.929 606.935 862.796 603.386 855.417C601.878 852.282 598.45 843.495 593.801 843.862C592.388 843.975 591.872 843.752 590.91 844.705C598.103 857.262 600.397 863.367 600.418 878.424C589.351 878.23 561.215 876.341 550.817 873.082C549.396 871.289 546.19 863.755 544.503 861.107C539.065 852.567 531.047 851.646 522.926 847.049C520.609 845.738 520.662 844.387 520.092 842.105Z" fill="url(#paint2_linear_3132_1435)"/>
<path d="M631.023 636.85C638.242 645.02 633.391 668.937 638.645 669.477C642.666 666.732 639.775 665.645 641.052 663.357C641.195 667 640.613 670.463 643.879 672.702C652.924 668.271 648.317 640.868 650.745 637.374C653.382 640.12 654.775 641.697 657.862 643.929C655.959 650.185 653.173 657.43 651.063 663.776L634.869 712.843C631.229 723.876 627.446 734.864 623.522 745.799C621.779 750.745 618.835 759.865 616.593 764.26L607.137 760.97C627.95 731.513 643.252 671.436 631.023 636.85Z" fill="#D87A25"/>
<circle cx="740.271" cy="692.015" r="48.0535" fill="#2688E3"/>
<path d="M788.324 692.015C788.324 702.494 784.899 712.686 778.57 721.038C772.241 729.39 763.355 735.444 753.267 738.278C743.178 741.112 732.44 740.571 722.687 736.736C712.935 732.902 704.703 725.985 699.247 717.038C693.79 708.092 691.407 697.607 692.461 687.182C693.515 676.756 697.948 666.96 705.085 659.287C712.223 651.614 721.672 646.485 731.995 644.68C742.317 642.875 752.947 644.494 762.264 649.29L740.271 692.015H788.324Z" fill="#012C53"/>
<path d="M822.836 661.213C825.649 662.242 828.465 663.305 831.313 664.229C861.081 678.629 856.56 711.762 843.976 736.763C837.984 748.666 830.293 761.474 817.222 766.481C810.826 768.962 802.626 767.538 798.892 768.538L797.975 768.26C795.316 767.437 793.825 765.923 791.401 766.341C789.431 767.918 789.393 769.862 788.356 772.08C787.868 770.849 788.753 768.685 789.016 766.783C787.717 764.388 783.239 761.29 780.953 759.556C780.152 762.371 779.606 764.287 778.478 767.035L777.63 767.051C778.24 764.225 779.641 760.59 780.614 757.79C773.015 745.341 774.294 734.882 780.426 722.465C776.801 708.607 778.061 699.554 790.076 690.494C790.248 675.81 795.945 667.895 809.494 662.404C813.864 661.986 819.853 663.223 822.836 661.213Z" fill="#BE5F13"/>
<path d="M812.466 671.326C833.268 669.691 846.011 684.37 843.534 704.599C841.307 722.782 827.839 761.993 803.809 758.274C789.476 756.056 780.274 746.988 785.555 732.366C786.058 730.973 786.047 731.263 787.253 730.781L789.291 731.971C795.425 736.166 803.344 739.997 810.928 738.171L811.362 737.347C808.387 732.3 793.732 727.799 789.857 720.351C787.797 717.016 785.934 711.895 787.361 707.865C793.294 691.11 808.037 697.854 820.159 702.269C822.002 702.94 824.723 703.58 826.331 702.712L826.318 701.527C824.238 698.248 819.48 694.052 815.948 692.491C809.059 689.447 791.433 688.991 802.721 677.348C806.459 673.492 807.298 672.926 812.466 671.326Z" fill="#F59F33"/>
<path d="M726.787 560.175C728.629 559.003 732.192 554.919 733.521 553.138C740.11 544.299 751.254 541.436 761.886 544.708C783.263 551.288 817.925 546.588 813.312 578.552L811.855 586.367C810.169 592.072 807.277 602.592 805.054 607.885C804.016 610.084 802.967 612.334 800.991 613.857C795.432 618.141 754.75 610.894 746.4 609.49C742.04 608.758 736.343 608.019 733.742 604.054C731.585 600.762 732.505 596.896 733.22 593.316C734.733 590.442 739.903 574.769 741.299 570.736C742.096 568.02 743.509 566.434 743.692 563.246L742.781 562.241L739.04 561.691L737.459 561.504C734.78 560.644 729.667 560.336 726.787 560.175Z" fill="#AD9E92"/>
<path d="M726.787 560.175C728.629 559.003 732.192 554.919 733.521 553.138C740.11 544.299 751.254 541.436 761.886 544.708C783.263 551.288 817.925 546.588 813.312 578.552L811.855 586.367C810.169 592.072 807.277 602.592 805.054 607.885C804.016 610.084 802.967 612.334 800.991 613.857C795.432 618.141 754.75 610.894 746.4 609.49C742.04 608.758 736.343 608.019 733.742 604.054C731.585 600.762 732.505 596.896 733.22 593.316C734.733 590.442 739.903 574.769 741.299 570.736C742.096 568.02 743.509 566.434 743.692 563.246L742.781 562.241L739.04 561.691C743.85 561.527 746.3 555.62 749.515 557.116C750.541 558.413 750.945 560.999 750.627 562.595C748.824 569.829 739.101 596.152 740.559 599.712C742.27 600.652 743.951 601.152 745.859 601.546C757.072 603.868 768.717 604.642 780.01 606.728C783.779 607.424 789.575 609.805 793.258 608.852C795.232 608.34 796.452 607.252 797.514 605.57C800.404 600.993 808.052 573.775 806.581 568.713C805.836 566.15 803.908 562.682 801.479 561.41C794.757 557.889 753.442 548.861 747.294 551.08C742.524 552.802 739.504 557.078 737.459 561.504C734.78 560.644 729.667 560.336 726.787 560.175Z" fill="#8C807C"/>
<path d="M813.312 578.552C834.084 584.085 858.194 583.228 847.987 612.506C842.125 629.322 837.359 647.365 831.313 664.229C828.465 663.305 825.649 662.242 822.836 661.213C819.852 663.223 813.863 661.986 809.494 662.404C813.113 652.137 816.438 641.089 820.056 630.908C827.834 609.013 825.656 610.559 805.054 607.886C807.277 602.592 810.169 592.073 811.855 586.367L813.312 578.552Z" fill="#D87A25"/>
<path d="M813.312 578.552C834.084 584.085 858.194 583.228 847.987 612.506C842.125 629.322 837.359 647.365 831.313 664.229C828.465 663.305 825.649 662.242 822.836 661.213C826.192 653.819 843.233 603.424 841.236 597.837C837.959 588.664 819.271 591.28 812.293 586.724C812.135 586.621 812.001 586.486 811.855 586.367L813.312 578.552Z" fill="#9C490E"/>
<path d="M402.862 704.398C402.862 704.4 404.406 685.82 404.293 686.342L404.978 686.74C405.692 690.831 408.553 693.716 409.422 701.065C411.14 715.614 410.919 730.964 412.88 745.375C414.845 759.432 417.264 773.421 420.134 787.322C424.699 808.485 441.58 875.849 453.89 890.226C463.45 901.39 483.001 903.039 496.594 903.997C495.976 886.042 492.556 886.371 486.926 871.903L487.376 870.96C500.152 870.091 503.823 894.346 504.538 903.54C513.803 903.268 517.294 903.077 526.383 900.821C525.919 892.329 525.374 886.207 522.654 878.009C521.464 874.423 516.758 868.644 516.78 866.172L517.761 865.596C530.879 865.405 533.102 889.672 533.127 899.085C537.067 896.931 541.61 894.532 542.295 889.56C543.249 882.624 541.04 871.914 536.777 866.392C525.569 851.874 503.267 856.45 487.541 856.08C486.13 856.046 484.583 854.951 483.795 853.838L484.363 852.881C491.99 849.38 500.825 848.316 509.1 847.115C503.125 835.532 501.881 817.453 501.848 804.484C501.764 770.906 500.874 736.334 502.461 702.848C503.621 705.638 506.678 717.507 508.548 719.474C509.867 728.864 510.69 735.874 511.048 744.829C511.662 760.21 510.358 823.64 514.39 834.045C513.299 836.891 515.331 841.288 517.809 843.048C519.096 842.807 519.016 842.849 520.092 842.104C520.662 844.386 520.609 845.737 522.926 847.048C531.047 851.646 539.065 852.567 544.503 861.106C546.19 863.755 549.396 871.289 550.817 873.081C550.791 876.103 550.359 880.406 552.193 882.698C551.969 890.257 553.017 895.591 546.778 901.209C539.024 908.195 529.347 910.154 519.569 912.135C508.842 913.443 498.087 913.192 487.298 912.908C468.655 909.976 450.815 906.742 441.26 888.137C439.84 885.373 437.422 877.887 435.728 876.048C435.544 873.596 434.251 869.194 433.198 866.938C430.621 852.419 422.363 832.915 418.435 817.84C411.742 792.162 405.849 766.308 403.467 739.792C402.436 728.302 403.229 716.012 402.862 704.398Z" fill="#BE5F13"/>
<path d="M626.417 576.254C629.198 571.602 631.002 565.418 634.507 561.945C632.995 566.98 638.275 577.495 639.99 583.039C643.965 595.94 647.056 609.095 649.244 622.415C652.963 626.116 657.305 630.239 660.722 634.145C660.258 636.73 659.898 640.772 657.5 642.202C654.145 641.316 653.199 636.9 650.745 637.374C648.317 640.869 652.924 668.272 643.879 672.702C640.613 670.463 641.195 667 641.052 663.358C641.462 636.886 638.898 609.624 630.213 584.44C630.018 582.478 627.499 578.116 626.417 576.254Z" fill="url(#paint3_linear_3132_1435)"/>
<path d="M502.461 702.848L503.154 701.822C506.509 702.873 508.155 715.872 508.548 719.474C506.678 717.507 503.621 705.638 502.461 702.848Z" fill="#D87A25"/>
<path d="M443.024 153.638C477.979 138.96 534.237 139.564 571.467 145.677C575.799 146.389 584.515 148.839 589.121 150.032C593.732 151.957 598.404 153.736 603.127 155.366C631.923 166.642 659.287 198.162 670.21 226.464C671.332 229.372 680.033 249.589 679.225 251.69C683.33 252.655 687.512 253.256 691.722 253.485C706.022 256.752 725.885 259.159 719.879 280.025C718.824 283.691 716.547 285.499 713.385 287.321C713.753 299.357 714.06 308.439 713.253 320.487C712.672 325.098 712.129 329.778 711.372 334.356C708.048 349.586 705.916 356.758 698.079 370.385C709.263 394.467 713.164 415.37 703.682 440.91C693.163 469.245 673.198 490.343 650.923 510.093C647.765 512.894 634.464 522.77 633.04 524.846C631.146 525.579 625.341 529.289 623.941 530.712C618.453 536.097 586.988 552.754 579.754 554.467C577.984 553.956 560.121 558.298 556.084 557.976C554.857 557.877 543.541 558.784 542.565 559.311C534.574 559.466 525.684 558.28 517.747 557.334C477.529 552.54 438.33 534.148 403.891 513.445C397.458 509.577 390.555 506.077 384.356 501.698C383.237 499.653 379.094 497.879 376.943 496.872C374.643 495.183 372.364 493.468 370.104 491.727C360.351 484.171 351.587 475.196 343.471 465.923C334.653 455.847 330.458 443.223 328.785 430.098C327.126 432.415 325.586 435.821 323.444 437.621C322.887 438.219 320.755 438.477 320.108 437.849C303.326 421.571 322.871 361.718 328.58 346.68C332.352 344.986 336.134 343.317 339.927 341.669C348.749 333.536 352.921 329.369 359.328 318.808C363.468 311.968 367.172 304.873 370.418 297.566C371.313 295.604 373.966 288.692 375.375 287.9C376.396 282.344 379.444 275.9 380.917 270.059C381.117 267.192 384.235 258.542 385.222 255.244C388.056 245.598 390.819 235.931 393.511 226.244C396.893 213.994 399.413 201.527 402.572 189.207C404.953 179.923 404.893 181.078 411.033 174.571C421.112 163.889 430.888 160.557 443.024 153.638Z" fill="#F59F33"/>
<path d="M443.024 153.638C477.979 138.96 534.237 139.564 571.467 145.677C575.799 146.389 584.515 148.839 589.121 150.032C593.732 151.957 598.404 153.736 603.128 155.366C631.923 166.642 659.287 198.162 670.21 226.464C671.332 229.372 680.033 249.589 679.225 251.69C674.633 251.126 669.663 250.856 665.021 250.516C649.198 249.923 634.744 249.865 619.039 251.617C588.034 255.08 579.71 264.998 575.178 294.88C564.071 292.453 554.428 292.033 543.267 295.041C540.46 281.517 536.441 269.171 524.199 261.351C508.352 251.23 486.637 250.335 468.33 251.217C444.744 252.351 416.873 252.582 395.297 262.758C390.017 266.436 383.639 266.153 380.917 270.059C381.117 267.192 384.235 258.542 385.222 255.244C388.056 245.598 390.819 235.931 393.511 226.244C396.893 213.994 399.413 201.527 402.572 189.207C404.953 179.923 404.893 181.078 411.033 174.571C421.112 163.889 430.888 160.557 443.024 153.638Z" fill="#F59F33"/>
<path d="M443.024 153.638C477.979 138.96 534.237 139.564 571.467 145.677C575.799 146.389 584.515 148.839 589.121 150.032C593.732 151.957 598.404 153.736 603.128 155.366C631.923 166.642 659.287 198.162 670.21 226.464C671.332 229.372 680.033 249.589 679.225 251.69C674.633 251.126 669.663 250.856 665.021 250.516C667.306 250.161 667.484 250.564 668.622 249.224C668.034 243.925 665.576 237.302 663.891 232.237C656.454 209.895 644.214 191.781 625.545 177.287C617.718 171.211 606.66 163.435 597.186 159.834C564.403 147.379 526.402 144.242 491.846 148.089C468.318 150.708 449.029 154.837 430.265 169.654C424.825 173.951 420.439 177.191 416.042 182.671C412.688 186.852 409.439 193.055 407.711 197.887C403.862 208.643 394.442 253.129 395.297 262.758C390.017 266.436 383.639 266.153 380.917 270.059C381.117 267.192 384.235 258.542 385.222 255.244C388.056 245.598 390.819 235.931 393.511 226.244C396.893 213.994 399.413 201.527 402.572 189.207C404.953 179.923 404.893 181.078 411.033 174.571C421.112 163.889 430.888 160.557 443.024 153.638Z" fill="#D87A25"/>
<path d="M469.366 213.125C478.86 212.337 495.749 213.06 498.732 223.296C502.172 235.095 491.119 234.187 484.218 232.63C476.649 230.922 468.157 232.601 461.153 234.735C454.878 236.962 442.197 246.635 436.969 239.476C434.63 225.777 458.318 215.019 469.366 213.125Z" fill="#BE5F13"/>
<path d="M617.507 213.164C631.783 211.637 644.99 215.914 653.276 228.421C655.411 231.725 657.972 239.344 652.339 240.767C648.349 241.775 642.091 238.072 638.411 236.34C628.983 232.677 621.435 230.917 611.277 233.215C605.671 234.484 599.567 234.966 598.339 227.743C596.453 216.638 609.262 214.529 617.507 213.164Z" fill="#BE5F13"/>
<path d="M575.178 294.88C579.71 264.998 588.033 255.08 619.039 251.617C634.744 249.865 649.198 249.923 665.021 250.516C669.663 250.856 674.633 251.126 679.225 251.689C683.33 252.655 687.512 253.256 691.722 253.484C706.022 256.752 725.885 259.159 719.879 280.025C718.824 283.691 716.547 285.498 713.385 287.321C713.753 299.356 714.06 308.438 713.253 320.487C712.672 325.098 712.129 329.777 711.372 334.356C708.047 349.586 705.916 356.758 698.079 370.385C696.023 372.839 693.989 375.311 691.976 377.799L686.069 383.47L685.057 384.278C682.086 379.512 678.975 375.067 675.78 370.46C678.751 367.532 680.685 365.277 683.368 362.058L681.652 360.224C679.78 359.829 679.026 359.632 677.218 359.024C675.541 357.5 675.269 354.726 675.404 352.556C677.186 324.023 677.842 297.504 673.035 269.156C654.281 268.268 614.777 265.11 599.649 276.423C586.871 285.978 590.849 329.607 596.124 342.87C593.722 343.798 582.257 342.86 579.514 342.213C577.066 332.706 576.48 322.85 575.579 313.075C562.454 309.997 556.969 310.961 544.071 313.833C543.916 320.318 543.444 326.792 542.659 333.231C535.468 388.372 496.287 400.381 445.76 393.767C429.88 391.687 413.909 386.487 404.198 372.994C388.603 351.322 385.552 317.881 389.296 292.109C386.17 291.757 384.352 291.408 381.327 290.747C378.661 289.939 377.832 289.332 375.375 287.9C376.396 282.344 379.444 275.9 380.917 270.059C383.639 266.153 390.016 266.435 395.297 262.758C416.873 252.582 444.744 252.351 468.33 251.216C486.637 250.334 508.351 251.23 524.199 261.351C536.441 269.171 540.459 281.517 543.267 295.041C554.428 292.033 564.071 292.453 575.178 294.88Z" fill="#452A1A"/>
<path d="M673.035 269.156C677.294 269.364 679.634 269.753 683.85 270.511C686.861 286.136 686.23 302.509 686.81 318.337C686.861 319.751 686.842 320.873 687.732 321.911L688.694 322.164C691.112 322.951 694.34 323.898 696.605 324.895C695.062 334.2 693.149 344.581 688.663 352.983C687.818 356.065 685.298 359.519 683.368 362.058L681.652 360.224C679.78 359.829 679.027 359.632 677.218 359.024C675.541 357.5 675.269 354.726 675.404 352.556C677.186 324.023 677.843 297.504 673.035 269.156Z" fill="#D87A25"/>
<path d="M688.663 352.983C686.342 348.682 686.975 326.372 686.975 320.256C686.975 320.256 688.286 321.282 689.16 321.567C693.965 323.751 694.34 323.897 696.605 324.894C695.062 334.2 693.149 344.581 688.663 352.983Z" fill="#9C490E"/>
<path d="M683.85 270.511C688.541 271.727 691.446 272.415 695.829 274.479C696.416 275.46 698.095 278.279 698.114 279.297C698.322 290.562 700.264 314.632 696.605 324.894C694.34 323.897 691.112 322.951 688.694 322.163L687.732 321.911C686.842 320.872 686.861 319.75 686.81 318.337C686.23 302.509 686.861 286.136 683.85 270.511Z" fill="#9C490E"/>
<path d="M478.9 269.49C490.963 268.919 510.963 269.885 518.72 280.449C533.884 301.1 529.409 350.445 509.419 366.905C495.676 378.222 471.991 379.224 455.226 377.269C445.523 376.303 431.057 374.716 422.494 367.711C404.844 353.276 398.84 296.078 411.891 280.113C419.196 271.177 464.826 270.09 478.9 269.49Z" fill="#F59F33"/>
<path d="M466.052 282.635C490.33 280.408 511.789 298.351 513.896 322.641C516.002 346.929 497.955 368.299 473.655 370.286C449.525 372.259 428.337 354.364 426.244 330.244C424.152 306.123 441.943 284.846 466.052 282.635Z" fill="white"/>
<path d="M467.486 293.501C486.062 291.517 502.713 305.008 504.628 323.591C506.544 342.174 492.994 358.777 474.404 360.624C455.908 362.463 439.41 348.998 437.503 330.509C435.598 312.02 449.004 295.472 467.486 293.501Z" fill="#452A1A"/>
<path d="M482.863 305.313C492.619 306.487 494.027 318.083 483.977 322.253C473.45 321.642 473.497 310.235 482.863 305.313Z" fill="white"/>
<path d="M339.927 341.669C348.749 333.537 352.921 329.369 359.328 318.808C363.468 311.968 367.172 304.873 370.418 297.566C371.313 295.604 373.966 288.692 375.375 287.9C377.832 289.332 378.661 289.94 381.327 290.747C380.537 297.76 374.049 308.94 372.22 317.169C363.668 355.645 357.556 399.015 374.503 436.141C378.136 443.985 381.284 451.933 386.9 459.055C423.134 504.998 481.341 529.663 537.949 538.434C555.595 541.168 571.479 538.713 588.664 534.99C595.952 533.412 604.457 525.617 609.634 528.442C617.339 524.405 624.159 518.011 630.985 512.718C671.877 481.019 717.458 433.296 691.976 377.8C693.99 375.311 696.023 372.839 698.079 370.385C709.263 394.467 713.164 415.37 703.682 440.91C693.163 469.245 673.198 490.343 650.923 510.093C647.765 512.894 634.464 522.77 633.04 524.846C631.146 525.579 625.341 529.289 623.941 530.712C618.453 536.097 586.988 552.754 579.754 554.467C577.984 553.956 560.121 558.298 556.084 557.976C554.857 557.877 543.541 558.784 542.565 559.311C534.574 559.466 525.684 558.28 517.747 557.334C477.529 552.54 438.33 534.148 403.891 513.445C397.458 509.577 390.555 506.077 384.356 501.698C383.237 499.653 379.094 497.879 376.943 496.872C374.643 495.183 372.364 493.468 370.104 491.727C360.351 484.171 351.587 475.196 343.471 465.923C334.653 455.847 330.458 443.223 328.785 430.098C327.126 432.415 325.586 435.821 323.444 437.621C322.887 438.219 320.755 438.477 320.108 437.849C303.326 421.571 322.871 361.718 328.58 346.68C332.352 344.986 336.134 343.317 339.927 341.669Z" fill="#D87A25"/>
<path d="M339.927 341.669C339.037 346.697 335.244 357.299 333.574 362.816C327.108 384.184 323.492 400.83 323.45 423.236C325.458 420.755 330.921 413.484 333.017 411.944C338.13 415.47 338.908 438.839 343.223 447.209C354.089 468.281 375.171 482.09 393.664 496.065C438.198 525.93 506.876 555.709 561.514 548.335C578.229 546.079 595.963 537.441 609.634 528.443C617.339 524.405 624.159 518.012 630.985 512.718C671.877 481.019 717.458 433.296 691.976 377.8C693.99 375.311 696.023 372.84 698.079 370.386C709.263 394.467 713.164 415.37 703.682 440.91C693.163 469.245 673.198 490.343 650.923 510.093C647.765 512.894 634.464 522.771 633.04 524.846C631.146 525.58 625.341 529.289 623.941 530.712C618.453 536.097 586.988 552.754 579.754 554.467C577.984 553.956 560.121 558.299 556.084 557.976C554.857 557.877 543.541 558.784 542.565 559.312C534.574 559.467 525.684 558.28 517.747 557.334C477.529 552.54 438.33 534.148 403.891 513.445C397.458 509.577 390.555 506.077 384.356 501.698C383.237 499.654 379.094 497.879 376.943 496.872C374.643 495.183 372.364 493.468 370.104 491.727C360.351 484.172 351.587 475.197 343.471 465.923C334.653 455.848 330.458 443.223 328.785 430.099C327.126 432.415 325.586 435.821 323.444 437.621C322.887 438.219 320.755 438.478 320.108 437.849C303.326 421.571 322.871 361.718 328.58 346.681C332.352 344.987 336.134 343.317 339.927 341.669Z" fill="#BE5F13"/>
<path d="M608.224 344.57C580.964 315.393 613.273 271.125 643.053 300.048C656.924 313.521 652.861 341.456 633.654 351.082C625.6 348.174 616.615 346.7 608.224 344.57Z" fill="#452A1A"/>
<path d="M623.057 302.593C632.671 302.984 633.941 311.877 626.877 317.551C617.011 317.98 616.333 308.483 623.057 302.593Z" fill="white"/>
<path d="M601.43 343.926C595.414 333.851 593.146 317.11 595.999 305.997C598.296 296.947 604.145 289.207 612.222 284.523C620.275 279.85 629.768 278.177 638.85 280.624C648.848 283.373 657.316 290.038 662.335 299.113C668.066 309.45 669.228 324.119 666.078 335.474C663.419 345.057 656.67 352.723 648.566 358.286C646.669 357.346 641.912 354.798 640.104 354.452L633.654 351.082C652.86 341.456 656.924 313.52 643.053 300.048C613.273 271.124 580.964 315.392 608.224 344.569C606.18 344.606 603.507 344.182 601.43 343.926Z" fill="white"/>
<path d="M605.972 432.669C567.815 421.282 532.456 372.241 592.986 361.425C608.954 358.573 631.523 355.687 647.437 360.091C664.23 364.737 673.007 380.363 667.569 397.435C662.874 411.791 652.702 423.714 639.265 430.612C635.562 432.514 632.574 433.518 628.594 434.619C617.129 434.863 615.824 433.613 605.972 432.669Z" fill="#452A1A"/>
<path d="M608.25 368.81C625.359 366.944 649.35 366.872 659.217 383.416C651.116 383.484 637.566 385.185 628.938 385.904C619.657 386.326 590.314 389.679 582.816 388.429C581.502 387.354 580.631 384.771 580.495 383.129C579.49 370.92 601.323 369.481 608.25 368.81Z" fill="#6F6159"/>
<path d="M472.407 431.694C469.655 433.424 466.229 435.97 463.108 434.371C458.792 427.325 473.398 415.599 480.252 416.773C483.187 419.464 479.517 423.284 477.706 425.876C491.207 446.088 505.288 455.234 528.739 462.853C548.747 469.353 579.598 469.842 598.669 459.96C608.964 454.625 612.547 446.03 615.607 435.629C612.477 435.001 608.699 434.227 605.972 432.668C615.824 433.612 617.129 434.863 628.594 434.618C627.578 434.77 626.551 434.98 625.52 435.12C621.46 435.675 622.153 442.121 620.89 445.21C619.844 447.774 618.17 450.809 617.402 453.35C615.744 458.837 624.401 462.839 628.479 463.841C636.575 466.12 646.099 464.152 653.32 459.953C665.971 452.597 672.624 439.079 676.296 425.508C676.068 456.418 650.451 477.992 619.973 470.494C619.561 471.666 619.128 472.83 618.676 473.987C605.517 507.649 570.923 513.192 540.084 501.028C515.392 491.289 482.665 455.969 472.407 431.694Z" fill="url(#paint4_linear_3132_1435)"/>
<path d="M537.621 475.632C553.596 474.329 575.487 475.052 589.847 482.809C592.234 484.155 595.204 486.436 595.774 489.31C597.486 497.945 585.823 499.564 579.924 500.437C561.065 502.352 543.765 498.31 528.102 487.386C525.284 485.421 521.997 483.106 521.913 479.397C524.341 476.591 533.935 475.988 537.621 475.632Z" fill="#E54913"/>
<path d="M328.58 346.681C327.231 346.744 325.882 346.771 324.531 346.761C284.807 346.236 233.793 258.132 234.866 222.369C235.99 184.875 284.979 168.186 313.142 153.604C326.611 146.63 340.295 140.952 354.231 135.144C397.129 116.892 412.286 119.472 443.024 153.639C430.888 160.557 421.112 163.89 411.033 174.571C404.893 181.078 404.953 179.923 402.572 189.207C399.413 201.527 396.893 213.995 393.511 226.244C390.819 235.931 388.056 245.599 385.222 255.244C384.235 258.543 381.117 267.193 380.917 270.059C379.444 275.9 376.396 282.344 375.375 287.9C373.966 288.693 371.313 295.604 370.418 297.567C367.172 304.873 363.468 311.968 359.328 318.808C352.921 329.369 348.749 333.537 339.927 341.669C336.134 343.317 332.352 344.987 328.58 346.681Z" fill="#9C490E"/>
<path d="M415.256 148.096C414.048 148.639 412.829 149.185 411.668 149.827C398.135 157.304 392.93 190.231 389.13 204.696C381.032 235.516 358.981 318.375 331.641 333.357C327.548 335.6 323.073 335.751 318.664 334.37C297.117 327.62 267.818 284.026 257.364 264.151C248.613 247.516 241.62 226.983 247.588 208.297C253.498 189.796 296.714 170.338 314.092 161.465C330.265 153.209 373.841 133.14 391.018 131.06C395.259 130.547 399.584 131.154 403.624 132.503C410.319 134.735 418.128 139.606 421.297 146.086C422.176 147.598 423.396 149.23 423.723 150.824L423.435 150.814C421.248 148.086 418.467 147.677 415.256 148.096Z" fill="#BE5F13"/>
<path d="M589.121 150.032C595.605 139.638 613.593 126.87 625.868 124.426C648.111 119.997 675.927 135.052 695.923 143.603C715.737 152.076 734.902 162.355 753.522 172.986C766.539 180.723 783.61 194.536 785.819 210.93C790.248 243.811 772.292 283.969 755.43 311.628C744.961 328.801 732.197 340.512 711.372 334.356C712.129 329.777 712.672 325.098 713.253 320.487C714.06 308.438 713.753 299.356 713.385 287.321C716.547 285.498 718.824 283.691 719.879 280.025C725.885 259.159 706.022 256.752 691.723 253.484C687.512 253.256 683.33 252.655 679.225 251.689C680.033 249.589 671.332 229.372 670.21 226.464C659.287 198.162 631.923 166.642 603.127 155.365C598.404 153.736 593.732 151.957 589.121 150.032Z" fill="#BE5F13"/>
<path d="M589.121 150.032C595.605 139.638 613.593 126.87 625.868 124.426C648.111 119.997 675.927 135.052 695.923 143.603C715.737 152.076 734.902 162.355 753.522 172.986C766.539 180.723 783.61 194.536 785.819 210.93C790.248 243.811 772.292 283.969 755.43 311.628C744.961 328.801 732.197 340.512 711.372 334.356C712.129 329.777 712.672 325.098 713.253 320.487C715.522 322.418 718.099 323.884 720.638 325.46C727.617 324.705 732.409 322.549 737.505 317.726C757.309 298.978 776.149 248.133 776.547 221.223C776.706 210.532 774.153 202.146 766.534 194.396C758.513 186.237 748.292 179.593 738.487 173.736C721.7 163.709 653.562 130.292 636.317 130.318C623.563 130.337 612.465 137.706 603.867 146.533C607.008 147.536 610.158 148.514 613.315 149.462C609.287 152.529 607.838 153.304 603.127 155.365C598.404 153.736 593.732 151.957 589.121 150.032Z" fill="#9C490E"/>
<path d="M613.315 149.463C615.745 147.71 617.649 147.126 620.69 147.845C636.663 151.618 649.407 164.375 657.918 177.708C669.409 195.707 677.46 216.354 685.845 235.874C687.651 240.079 690.42 251.067 691.722 253.485C687.512 253.256 683.33 252.656 679.225 251.69C680.033 249.589 671.332 229.372 670.21 226.464C659.287 198.162 631.923 166.642 603.127 155.366C607.838 153.304 609.286 152.529 613.315 149.463Z" fill="#9C490E"/>
<defs>
<linearGradient id="paint0_linear_3132_1435" x1="657.788" y1="591.223" x2="152.22" y2="790.311" gradientUnits="userSpaceOnUse">
<stop stop-color="#A6300A"/>
<stop offset="1" stop-color="#B06012"/>
</linearGradient>
<linearGradient id="paint1_linear_3132_1435" x1="369.28" y1="812.234" x2="435.764" y2="778.45" gradientUnits="userSpaceOnUse">
<stop stop-color="#CB6D17"/>
<stop offset="1" stop-color="#E5871F"/>
</linearGradient>
<linearGradient id="paint2_linear_3132_1435" x1="529.784" y1="812.324" x2="643.132" y2="845.064" gradientUnits="userSpaceOnUse">
<stop stop-color="#C96711"/>
<stop offset="1" stop-color="#F29B2E"/>
</linearGradient>
<linearGradient id="paint3_linear_3132_1435" x1="654.756" y1="615.158" x2="630.101" y2="621.237" gradientUnits="userSpaceOnUse">
<stop stop-color="#AD550F"/>
<stop offset="1" stop-color="#CC6A17"/>
</linearGradient>
<linearGradient id="paint4_linear_3132_1435" x1="557.63" y1="504.719" x2="571.676" y2="415.478" gradientUnits="userSpaceOnUse">
<stop stop-color="#732F07"/>
<stop offset="1" stop-color="#944609"/>
</linearGradient>
</defs>
</svg>
